<svg id="레이어_1" data-name="레이어 1" xmlns="http://www.w3.org/2000/svg" xmlns:xlink="http://www.w3.org/1999/xlink" viewBox="0 0 56 44.01"><defs><style>.cls-1{fill:none;}.cls-2{clip-path:url(#clip-path);}.cls-3{fill:#fff;}</style><clipPath id="clip-path" transform="translate(6 -5.99)"><rect class="cls-1" x="-5.99" y="5.99" width="56" height="44.01"/></clipPath></defs><title>Vector Smart Object</title><g class="cls-2"><path class="cls-3" d="M49.19,25.93l-18-19a3.37,3.37,0,0,0-4.36-.24,3.12,3.12,0,0,0,0,4.37L40,25H-3a3,3,0,0,0-3,3,3,3,0,0,0,3,3H40L26.85,44.93a3.06,3.06,0,0,0,0,4.36,3.29,3.29,0,0,0,4.36-.24l18-19a3,3,0,0,0,0-4.12" transform="translate(6 -5.99)"/></g></svg>