<svg xmlns="http://www.w3.org/2000/svg" xmlns:xlink="http://www.w3.org/1999/xlink" viewBox="0 0 337.6 51.02"><defs><style>.cls-1{fill:none;}.cls-2{clip-path:url(#clip-path);}.cls-3{fill:#8f8980;}.cls-4{clip-path:url(#clip-path-2);}</style><clipPath id="clip-path" transform="translate(0 0)"><rect class="cls-1" width="337.6" height="51.02"/></clipPath><clipPath id="clip-path-2" transform="translate(0 0)"><path class="cls-1" d="M80.74,14.64C78.64,14.7,78.42,17,78.42,17v6.39h8.78V14.64Z"/></clipPath></defs><title>Vector Smart Object</title><g class="cls-2"><path class="cls-3" d="M267.33,24.68c3.31.8,5,2,5,4.61,0,3-2.31,4.7-5.6,4.7a9.66,9.66,0,0,1-6.54-2.51l1.65-2a7.22,7.22,0,0,0,4.95,2c1.7,0,2.77-.78,2.77-2s-.62-1.75-3.54-2.42c-3.33-.81-5.22-1.79-5.22-4.7,0-2.73,2.24-4.57,5.36-4.57a8.67,8.67,0,0,1,5.68,2l-1.48,2.08a7.1,7.1,0,0,0-4.25-1.61c-1.61,0-2.55.82-2.55,1.88,0,1.23.71,1.76,3.71,2.48" transform="translate(0 0)"/><polygon class="cls-3" points="287.23 20.56 278.37 20.56 278.37 24.64 286.23 24.64 286.23 27.1 278.37 27.1 278.37 31.31 287.35 31.31 287.35 33.77 275.62 33.77 275.62 18.1 287.23 18.1 287.23 20.56"/><path class="cls-3" d="M298.1,34a8.1,8.1,0,1,1,0-16.21,8,8,0,0,1,8.17,8.08A8,8,0,0,1,298.1,34m0-13.68a5.3,5.3,0,0,0-5.29,5.55,5.38,5.38,0,0,0,5.33,5.59A5.3,5.3,0,0,0,303.43,26a5.38,5.38,0,0,0-5.33-5.6" transform="translate(0 0)"/><path class="cls-3" d="M322.82,27c0,4.68-2.64,7-6.74,7s-6.67-2.35-6.67-6.89v-9h2.76V27c0,2.91,1.5,4.48,4,4.48s3.94-1.48,3.94-4.37v-9h2.75Z" transform="translate(0 0)"/><polygon class="cls-3" points="326.61 18.1 329.37 18.1 329.37 31.26 337.6 31.26 337.6 33.77 326.61 33.77 326.61 18.1"/><path class="cls-3" d="M236.37,20.34v0c-.54-5.84-4.55-9.45-10.48-9.45-6.5,0-10.54,4.38-10.54,11.43,0,9.5,6.08,11.48,11.18,11.48a12.27,12.27,0,0,0,9.29-3.48l.12-.1-3.36-2.85-.09.09a7.67,7.67,0,0,1-5.86,2.24c-3.78,0-6-2.22-6.09-5.92H233a3.24,3.24,0,0,0,3.37-3.4m-14.67,0a1.1,1.1,0,0,1-1.09-1.18,5.27,5.27,0,0,1,.51-1.64,5.09,5.09,0,0,1,4.76-2.71,5,5,0,0,1,4.72,2.71,6.12,6.12,0,0,1,.65,2.82Z" transform="translate(0 0)"/><path class="cls-3" d="M243.71,2.45c-3.17,0-3.67,2.26-3.67,3.23v28.1h5.5V2.45Z" transform="translate(0 0)"/><path class="cls-3" d="M185.82,33.77c-6.69,0-10.9-5.11-10.9-11.39s4.25-11.52,11-11.52S196.86,16,196.86,22.3s-4.25,11.48-11,11.48m0-18.76c-4,0-6.11,3.42-6.11,7.29s2.28,7.37,6.2,7.37c4.07,0,6.15-3.42,6.15-7.29S189.77,15,185.82,15" transform="translate(0 0)"/><path class="cls-3" d="M207.43,14.8h5V10.14h-6.26V3.66h-1.83c-3.18,0-3.67,2.27-3.67,3.24V27.23c0,5.19,2.82,6.93,6.8,6.93a9.54,9.54,0,0,0,4.87-1.2V28.52a7.17,7.17,0,0,1-3.35.8c-1.84,0-2.91-.84-2.82-3V16.09a1.29,1.29,0,0,1,1.29-1.3" transform="translate(0 0)"/><path class="cls-3" d="M169.24,2.45c-3.17,0-3.67,2.26-3.67,3.23v9.78H151.37v-13h-1.83c-3.16,0-3.67,2.26-3.67,3.23v28.1h5.5V21.86a1.3,1.3,0,0,1,1.3-1.3h12.9V33.78h5.5V2.45Z" transform="translate(0 0)"/><path class="cls-3" d="M117,39.13a.86.86,0,0,0-1.15.18,20.74,20.74,0,0,1-32.49,0,.87.87,0,0,0-1.45.94,19.92,19.92,0,0,0,35.38,0,.85.85,0,0,0-.3-1.12" transform="translate(0 0)"/></g><g class="cls-4"><rect class="cls-3" x="78.42" y="14.64" width="8.78" height="8.78"/></g><g class="cls-2"><path class="cls-3" d="M119.21,16.47l9.74-9.72L122.28.09,111.14,11.24l-3.93,3.93h0c-2.32,1.69-2.65-.72-2.71-1.36V0H99.58c-3.79.07-4.41,3.91-4.48,4.51V35.78h9.41V17.92L122.28,35.7,128.95,29l-9.78-9.77a2.07,2.07,0,0,1,0-2.79" transform="translate(0 0)"/><path class="cls-3" d="M0,5.68V6.95H9.5V33.78H15V8.25a1.28,1.28,0,0,1,1.19-1.3h8.3V2.44H3.67C.5,2.45.05,4.71,0,5.68M67.54,27.43a7.61,7.61,0,0,1-5.86,2.24c-3.78,0-6-2.22-6.1-5.92H68.06a3.24,3.24,0,0,0,3.38-3.4v0c-.54-5.84-4.55-9.45-10.48-9.45-6.5,0-10.54,4.38-10.54,11.42,0,9.49,6.07,11.49,11.17,11.49a12.32,12.32,0,0,0,9.29-3.48l.12-.11-3.36-2.84ZM55.67,19.2a5.44,5.44,0,0,1,.51-1.64A5.09,5.09,0,0,1,61,14.84a5,5,0,0,1,4.72,2.71,6.17,6.17,0,0,1,.65,2.82H56.76a1.09,1.09,0,0,1-1.09-1.17M39,11.12A9.33,9.33,0,0,0,34,12.48a1.17,1.17,0,0,1-.89-.09,1,1,0,0,1-.37-.63V2.44H31.25A3.63,3.63,0,0,0,28.4,3.52a3.65,3.65,0,0,0-.81,2.62V33.78h5.21V20.07c0-2.95,1.82-4.7,4.85-4.7s4.81,1.76,4.81,4.7V33.78h5.21V19.37c0-5.08-3.32-8.25-8.66-8.25" transform="translate(0 0)"/></g></svg>