<svg class="logoSvg" xmlns="http://www.w3.org/2000/svg" xmlns:xlink="http://www.w3.org/1999/xlink" viewBox="0 0 315.8 52.17">
	<style xmlns="http://www.w3.org/2000/svg" type="text/css">
		.logoSvg path {fill:#222222;}
		.logoSvg rect {fill:#222222;}
	</style>
	<g class="cls-1"><path class="cls-3" d="M119.65,40a.88.88,0,0,0-1.17.19,21.2,21.2,0,0,1-33.22,0,.89.89,0,0,0-1.49,1,20.37,20.37,0,0,0,36.19,0,.88.88,0,0,0-.3-1.15" transform="translate(0 0)"/></g><g class="cls-3"><rect class="cls-5" x="80.19" y="14.98" width="8.97" height="8.97"/></g><g class="cls-1"><path class="cls-6" d="M121.89,16.84l10-9.94L125,.1l-11.39,11.4-4,4h0c-2.37,1.73-2.71-.74-2.76-1.39V0h-5c-3.87.08-4.5,4-4.58,4.61v32h9.63V18.32l6.78,6.78L125,36.5l6.81-6.81-10-10a2.13,2.13,0,0,1,0-2.86" transform="translate(0 0)"/><path class="cls-6" d="M39.87,11.37a9.53,9.53,0,0,0-5.05,1.4,1.21,1.21,0,0,1-.91-.09,1,1,0,0,1-.38-.64V2.49H32A3.72,3.72,0,0,0,29,3.6a3.75,3.75,0,0,0-.83,2.68V34.54h5.32v-14c0-3,1.86-4.81,5-4.81s4.91,1.8,4.91,4.81v14h5.33V19.81c0-5.2-3.4-8.44-8.86-8.44m17.06,8.26a5.41,5.41,0,0,1,.53-1.68,5.2,5.2,0,0,1,4.87-2.77,5.11,5.11,0,0,1,4.83,2.77,6.24,6.24,0,0,1,.66,2.88H58a1.12,1.12,0,0,1-1.11-1.2M69.06,28a7.78,7.78,0,0,1-6,2.29c-3.86,0-6.17-2.26-6.23-6.06H69.59A3.3,3.3,0,0,0,73,20.8v0c-.54-6-4.65-9.67-10.72-9.67-6.65,0-10.78,4.48-10.78,11.68,0,9.71,6.22,11.75,11.43,11.75A12.58,12.58,0,0,0,72.47,31l.12-.11L69.15,28ZM0,5.8V7.11H9.71V34.54h5.62V8.43a1.3,1.3,0,0,1,1.22-1.32H25V2.49H3.75C.5,2.51,0,4.81,0,5.8" transform="translate(0 0)"/><path class="cls-6" d="M205.83,16.95c-2.22,0-4.1-2.23-4.1-4.89s1.84-4.85,4.1-4.85,4.1,2.17,4.1,4.85-1.83,4.89-4.1,4.89m0,3.47a7.22,7.22,0,0,0,5.4-2.49,8.89,8.89,0,0,0,0-11.74,7.21,7.21,0,0,0-5.4-2.49c-4.21,0-7.65,3.75-7.65,8.36s3.43,8.36,7.65,8.36" transform="translate(0 0)"/><path class="cls-6" d="M261.67,19.3l.06.08.1,0a18.83,18.83,0,0,0,5.51-2.95,12.24,12.24,0,0,0,3.42-3.66,12.85,12.85,0,0,0,3.62,3.8,18,18,0,0,0,5.33,2.81l.1,0,.06-.09,1.75-2.43.12-.15-.19-.07a17.07,17.07,0,0,1-6.51-4,8.84,8.84,0,0,1-2.32-4.82H280V4.49H261.28v3.3h7.37a8.93,8.93,0,0,1-2,4.54,15.28,15.28,0,0,1-6.72,4.38l-.19.07.12.16Z" transform="translate(0 0)"/><path class="cls-6" d="M149.4,12.67a4.13,4.13,0,0,1,4-4.21,4.08,4.08,0,0,1,4,4.21,4.08,4.08,0,0,1-4,4.21,4.12,4.12,0,0,1-4-4.21m18.2,10.93,0,0h-12.5V20.17a7.71,7.71,0,0,0,6.18-7.36,6.44,6.44,0,0,0-1.79-4.49h4V5.1h-8V1.81h-4.08V5.1h-8.17V8.32h4.19a6.65,6.65,0,0,0-1.8,4.49,7.71,7.71,0,0,0,5.89,7.28v3.45H139.11v3.26h25.16a3.54,3.54,0,0,0,3.33-3.21" transform="translate(0 0)"/><path class="cls-6" d="M183,16.17H172.58V13h6.71V10h-6.71V7.11h8.49V3.88H169v15.4h10.75A3.53,3.53,0,0,0,183,16.17" transform="translate(0 0)"/><path class="cls-6" d="M195,31.83H180.82V29.46h13.53V21.34H176.77v3h13.57v2.2H176.77V35h15A3.54,3.54,0,0,0,195,31.83" transform="translate(0 0)"/><path class="cls-6" d="M225.48,31.9v-.23H210.85V24.84h-3.76V34.92H222.5a3.49,3.49,0,0,0,3-3" transform="translate(0 0)"/><path class="cls-6" d="M285,23.66v-.1H272.53V17.88h-3.86v5.67H256.42v3.26H281.6A3.55,3.55,0,0,0,285,23.66" transform="translate(0 0)"/><path class="cls-6" d="M312.27,26.66a3.59,3.59,0,0,0,3.53-3.17h-29v3.18h25.46Z" transform="translate(0 0)"/><path class="cls-6" d="M253.4,26.85V3h-3.76V30.48a3.81,3.81,0,0,0,3.76-3.63" transform="translate(0 0)"/><path class="cls-6" d="M218.41,21.31V14.14h3.1V25.62a3.79,3.79,0,0,0,3.65-3.55V3h-3.65v7.75h-3.1V3.38H214.9V24.82h0a3.61,3.61,0,0,0,3.47-3.51" transform="translate(0 0)"/><path class="cls-6" d="M194.6,16.45V3h-3.65V20a3.8,3.8,0,0,0,3.65-3.55" transform="translate(0 0)"/><path class="cls-6" d="M184.52,19.81V20h.18A3.61,3.61,0,0,0,188,16.47h0V3.38h-3.51V9.56h-4.18v3.12h4.18Z" transform="translate(0 0)"/><path class="cls-6" d="M311,17.26v-.14H296.39V13.7h13.19v-3H296.39v-3h13.37V4.53H292.46V20.31h15.28a3.54,3.54,0,0,0,3.31-3" transform="translate(0 0)"/><path class="cls-6" d="M247.85,19.93v0h-14V15.18h9.57V4.56H230.08V7.83h9.6v4.31H230v11h14.55a3.53,3.53,0,0,0,3.26-3.2" transform="translate(0 0)"/></g>
</svg>