<svg id="레이어_1" data-name="레이어 1" xmlns="http://www.w3.org/2000/svg" xmlns:xlink="http://www.w3.org/1999/xlink" viewBox="0 0 379.44 43.98"><defs><style>.cls-1{fill:none;}.cls-2{clip-path:url(#clip-path);}.cls-3{fill:#8f8880;}.cls-4{clip-path:url(#clip-path-2);}</style><clipPath id="clip-path" transform="translate(0 0)"><rect class="cls-1" width="379.44" height="43.98"/></clipPath><clipPath id="clip-path-2" transform="translate(0 0)"><path class="cls-1" d="M69.6,12.62c-1.8.06-2,2-2,2.06v5.51h7.56V12.62Z"/></clipPath></defs><title>Vector Smart Object2</title><g class="cls-2"><path class="cls-3" d="M103.11,33.73a.74.74,0,0,0-1,.16,17.88,17.88,0,0,1-28,0,.76.76,0,0,0-1-.16.75.75,0,0,0-.25,1,17.18,17.18,0,0,0,30.51,0,.74.74,0,0,0-.26-1" transform="translate(0 0)"/></g><g class="cls-4"><rect class="cls-3" x="67.6" y="12.62" width="7.56" height="7.57"/></g><g class="cls-2"><path class="cls-3" d="M105,14.19l8.38-8.38L107.64.07,98,9.69l-3.39,3.39h0c-2,1.46-2.28-.63-2.33-1.18V0H88.08c-3.27.06-3.8,3.37-3.87,3.88v27h8.12V15.45L98,21.16l9.6,9.61L113.38,25,105,16.61a1.79,1.79,0,0,1,0-2.41" transform="translate(0 0)"/><path class="cls-3" d="M0,4.89V6H8.19V29.11h4.74v-22a1.11,1.11,0,0,1,1-1.12h7.16V2.1h-18C.43,2.11,0,4,0,4.89M58.23,23.64a6.58,6.58,0,0,1-5.05,1.93c-3.26,0-5.21-1.91-5.26-5.11H58.67a2.79,2.79,0,0,0,2.91-2.93v0c-.46-5-3.93-8.15-9-8.15-5.6,0-9.08,3.77-9.08,9.84,0,8.2,5.24,9.91,9.63,9.91a10.63,10.63,0,0,0,8-3l.1-.09-2.9-2.45ZM48,16.55a4.58,4.58,0,0,1,.45-1.41,4.37,4.37,0,0,1,4.1-2.34,4.3,4.3,0,0,1,4.07,2.34,5.15,5.15,0,0,1,.56,2.42H48.93a1,1,0,0,1-.94-1m-14.37-7a8.07,8.07,0,0,0-4.26,1.17,1,1,0,0,1-.77-.08.85.85,0,0,1-.31-.53v-8H26.94A3.14,3.14,0,0,0,24.48,3a3.2,3.2,0,0,0-.69,2.26V29.11h4.49V17.3c0-2.54,1.57-4.05,4.18-4.05s4.15,1.51,4.15,4.05V29.11h4.48V16.7c0-4.39-2.86-7.11-7.46-7.11" transform="translate(0 0)"/><path class="cls-3" d="M184.19,1.93s-1.25-.09-1.25.93a1.18,1.18,0,0,0,.86,1.21s1.06-.19,1.06,2.15V18.54h-23.7s0,2.89,3.84,2.89h19.86v7.46h5.75V13.5h3.74V10.79h-3.74V4.54A2.47,2.47,0,0,0,188,1.93Z" transform="translate(0 0)"/><path class="cls-3" d="M169.22,2.58s-10.36.17-10.36,7.65c0,7.18,10.84,7.09,10.84,7.09s10.65-.19,10.65-7.27-11.13-7.47-11.13-7.47m.57,12.22s-5.37.1-5.37-4.66,4.89-5,4.89-5,5.38.09,5.38,4.85-4.9,4.85-4.9,4.85" transform="translate(0 0)"/><path class="cls-3" d="M146.81,2.12s-1.06,0-1.06.93a1.18,1.18,0,0,0,1,1.12s1-.28,1,1.59V8.37h-5.18s.58,2.8,3,2.8h2.21v7.09H125.13a3.46,3.46,0,0,0,3.26,2.52h19.28v1.49H126.09s-1.54.09,0,1.31c0,0,.86.09.86,2V27.4A1.52,1.52,0,0,0,128.67,29h25V26.47h-21V24.88h20.92V5.48S153.81,2,151.22,2Z" transform="translate(0 0)"/><path class="cls-3" d="M131,2.49s-.86,0-.86.65.77.84.77.84,1.63,0,.57,1.77c0,0-1.83,7.28-11.61,9.7l2.5.93a22.87,22.87,0,0,0,11.13-5.5s4.9,2.52,6.24,5.88H146A17,17,0,0,0,134.82,9.4s2.4-3.17,2.69-4.94c0,0,1.15-2-1.82-2Z" transform="translate(0 0)"/><path class="cls-3" d="M184.19,1.93s-1.25-.09-1.25.93a1.18,1.18,0,0,0,.86,1.21s1.06-.19,1.06,2.15V18.54h-23.7s0,2.89,3.84,2.89h19.86v7.46h5.75V13.5h3.74V10.79h-3.74V4.54A2.47,2.47,0,0,0,188,1.93Z" transform="translate(0 0)"/><path class="cls-3" d="M169.22,2.58s-10.36.17-10.36,7.65c0,7.18,10.84,7.09,10.84,7.09s10.65-.19,10.65-7.27-11.13-7.47-11.13-7.47m.57,12.22s-5.37.1-5.37-4.66,4.89-5,4.89-5,5.38.09,5.38,4.85-4.9,4.85-4.9,4.85" transform="translate(0 0)"/><path class="cls-3" d="M146.81,2.12s-1.06,0-1.06.93a1.18,1.18,0,0,0,1,1.12s1-.28,1,1.59V8.37h-5.18s.58,2.8,3,2.8h2.21v7.09H125.13a3.46,3.46,0,0,0,3.26,2.52h19.28v1.49H126.09s-1.54.09,0,1.31c0,0,.86.09.86,2V27.4A1.52,1.52,0,0,0,128.67,29h25V26.47h-21V24.88h20.92V5.48S153.81,2,151.22,2Z" transform="translate(0 0)"/><path class="cls-3" d="M131,2.49s-.86,0-.86.65.77.84.77.84,1.63,0,.57,1.77c0,0-1.83,7.28-11.61,9.7l2.5.93a22.87,22.87,0,0,0,11.13-5.5s4.9,2.52,6.24,5.88H146A17,17,0,0,0,134.82,9.4s2.4-3.17,2.69-4.94c0,0,1.15-2-1.82-2Z" transform="translate(0 0)"/><path class="cls-3" d="M311.4,7.21H341V9.79H313.84S312,9.9,311.4,7.21" transform="translate(0 0)"/><path class="cls-3" d="M316.39,3.14h20V5.71H318.84s-1.86.12-2.44-2.58" transform="translate(0 0)"/><path class="cls-3" d="M318.07,16.31c0-1.65,3.72-3,8.31-3s8.31,1.33,8.31,3-3.72,3-8.31,3-8.31-1.33-8.31-3m11.06,5.51c6.49-.49,11.38-2.68,11.38-5.3,0-3-6.33-5.4-14.15-5.4s-14.15,2.42-14.15,5.4c0,2.63,4.92,4.82,11.44,5.31v3.76h-13c.59,2.69,2.44,2.58,2.44,2.58h29.13V25.59h-13.1Z" transform="translate(0 0)"/><path class="cls-3" d="M198.91,16.47l-2.75-.86s9.1-2.18,11.88-10.1c0,0,.5-1.1,0-1.36l-1.18-.43a.71.71,0,0,1-.46-.64s-.07-.67.55-.67h5.45s1.79-.07,1.5,1.38A16.86,16.86,0,0,1,211,9.28c9.64,2.69,11.25,7.51,11.25,7.51h-6.18a18.08,18.08,0,0,0-6.31-6.08,19.74,19.74,0,0,1-10.87,5.75" transform="translate(0 0)"/><path class="cls-3" d="M230,10.62h3.75v2.62H230V29.05h-26.2s-1.05,0-1.05-1.55V20.94a1,1,0,0,0-.4-.71l-1-.77s-.9-.63,0-.63h6.93v7.67h15.92V4.21s.09-.36-1.36-.85a.75.75,0,0,1-.46-.71.73.73,0,0,1,.79-.79h4.58A2.19,2.19,0,0,1,230,4.21Z" transform="translate(0 0)"/><path class="cls-3" d="M266.38,11.06h3.32v2.37h-3.32V28.38h-5.45V5.08s.09-.34-1.27-.8a.7.7,0,0,1-.43-.67.68.68,0,0,1,.74-.74h4.3a2.06,2.06,0,0,1,2.12,2.2Z" transform="translate(0 0)"/><path class="cls-3" d="M255.66,7.17a12.52,12.52,0,0,1-.75,2.86,28.68,28.68,0,0,1-16.25,15.61l-2.34-1.2c12.29-6.15,13.3-17.31,13.3-17.31H239c-1.48,0-2.25-2.25-2.25-2.25h15.33c4,0,3.58,2.31,3.58,2.31" transform="translate(0 0)"/><path class="cls-3" d="M274.3,13.67S286.83,11,292.08,6.33H279.47a3.11,3.11,0,0,1-3.1-2.45h21.27s2.16-.07,2.16,1.92c0,0,.28,1.86-5.67,4.34,9,1.28,9.91,4.51,9.91,4.51h-6.12c-.64-1.64-4-2.71-6.95-3.34a109.06,109.06,0,0,1-14.36,3.46Z" transform="translate(0 0)"/><path class="cls-3" d="M303.09,21.83v7.56h-5.36V22.31H277.5S275.22,22,275.22,20h26s1.88-.29,1.88,1.88" transform="translate(0 0)"/><path class="cls-3" d="M293.14,15.94H306.6v2.58H275.29s-1.85.12-2.44-2.58H287.5v-.77c0-.51-.65-1.16-.65-1.16l-.52-.49c-.34-.37,0-.38,0-.38h6.81Z" transform="translate(0 0)"/><path class="cls-3" d="M379.44,26v2.36H355.12a.91.91,0,0,1-1-1V24.21a.87.87,0,0,0-.28-.6l-1-.87c-.6-.56.06-.54.06-.54h21.32V20.54H355s-2.27-.29-2.27-2.37h14.56V15.59l-16,1c-2.65.16-2.6-1.83-2.6-1.83V7.13c0-.53-.88-1.07-.88-1.07-1.1-.51-.94-1-.94-1a.84.84,0,0,1,.83-.86h14.44l0,2.44h-8.05v2.2h7.76v2.44h-7.76v2.42l13.23-.78V11.37h-1.94c-1,0-2.05-1.88-2.05-1.88-.61-.79.27-.67.27-.67h3.73V5.12s.08-.34-1.22-.79a.71.71,0,0,1-.41-.67.67.67,0,0,1,.71-.74h4.1a2,2,0,0,1,2,2.2V18.18h1.71V5.12s.08-.34-1.21-.79a.71.71,0,0,1-.41-.67.68.68,0,0,1,.71-.74h4.1a2,2,0,0,1,2,2.2l0,19.41h-20V26Z" transform="translate(0 0)"/></g></svg>