<svg id="레이어_1" data-name="레이어 1" xmlns="http://www.w3.org/2000/svg" xmlns:xlink="http://www.w3.org/1999/xlink" viewBox="0 0 378.15 43.98"><defs><style>.cls-1{fill:none;}.cls-2{clip-path:url(#clip-path);}.cls-3{fill:#8f8880;}.cls-4{clip-path:url(#clip-path-2);}</style><clipPath id="clip-path" transform="translate(0 0)"><rect class="cls-1" width="378.15" height="43.98"/></clipPath><clipPath id="clip-path-2" transform="translate(0 0)"><path class="cls-1" d="M69.6,12.62c-1.8.05-2,2-2,2.06v5.51h7.56V12.62Z"/></clipPath></defs><title>Vector Smart Object3</title><g class="cls-2"><path class="cls-3" d="M310.11,6.73h29.6V9.3H312.55s-1.85.11-2.44-2.58" transform="translate(0 0)"/><path class="cls-3" d="M315.11,2.66h20V5.23H317.55s-1.86.11-2.44-2.58" transform="translate(0 0)"/><path class="cls-3" d="M316.78,15.83c0-1.65,3.71-3,8.31-3s8.31,1.33,8.31,3-3.72,3-8.31,3-8.31-1.33-8.31-3m11.06,5.51c6.49-.49,11.38-2.68,11.38-5.3,0-3-6.33-5.4-14.15-5.4s-14.15,2.42-14.15,5.4c0,2.63,4.92,4.82,11.43,5.3v3.76h-13c.59,2.69,2.44,2.58,2.44,2.58h29.13V25.11h-13.1Z" transform="translate(0 0)"/><path class="cls-3" d="M265.09,10.58h3.32V13h-3.32V27.9h-5.45V4.6s.09-.34-1.27-.8a.7.7,0,0,1-.43-.67.68.68,0,0,1,.74-.74H263a2.06,2.06,0,0,1,2.11,2.2Z" transform="translate(0 0)"/><path class="cls-3" d="M254.38,6.69a12.53,12.53,0,0,1-.75,2.86,28.69,28.69,0,0,1-16.25,15.61L235,24c12.29-6.14,13.3-17.31,13.3-17.31H237.71c-1.48,0-2.25-2.25-2.25-2.25H250.8c4,0,3.58,2.31,3.58,2.31" transform="translate(0 0)"/><path class="cls-3" d="M273,13.19s12.53-2.63,17.78-7.33H278.19a3.1,3.1,0,0,1-3.1-2.45h21.27s2.16-.07,2.16,1.92c0,0,.28,1.86-5.67,4.34,9,1.28,9.91,4.5,9.91,4.5h-6.12c-.64-1.64-4-2.71-6.94-3.34a109.27,109.27,0,0,1-14.36,3.46Z" transform="translate(0 0)"/><path class="cls-3" d="M301.81,21.35v7.56h-5.36V21.84H276.21s-2.27-.29-2.27-2.36h26s1.88-.29,1.88,1.88" transform="translate(0 0)"/><path class="cls-3" d="M291.86,15.46h13.46V18H274s-1.85.12-2.44-2.58h14.65v-.78c0-.5-.66-1.16-.66-1.16L285,13c-.33-.37,0-.38,0-.38h6.82Z" transform="translate(0 0)"/><path class="cls-3" d="M378.15,25.54V27.9H353.83a.91.91,0,0,1-1-1V23.73a.86.86,0,0,0-.28-.6l-1-.87c-.6-.56.06-.54.06-.54h21.32V20.06H353.74s-2.27-.29-2.27-2.37H366V15.11l-16,1c-2.66.16-2.6-1.83-2.6-1.83V6.65c0-.53-.88-1.07-.88-1.07-1.1-.51-.94-1-.94-1a.85.85,0,0,1,.83-.86h14.44l0,2.44H352.8v2.2h7.76v2.44H352.8v2.42L366,12.45V10.89h-1.94C363.1,10.89,362,9,362,9c-.61-.79.27-.67.27-.67H366V4.64s.08-.34-1.22-.8a.7.7,0,0,1-.41-.67.68.68,0,0,1,.71-.74h4.1a2,2,0,0,1,2,2.21V17.7h1.71V4.64s.08-.34-1.21-.8a.7.7,0,0,1-.41-.67.68.68,0,0,1,.71-.74h4.1a2,2,0,0,1,2,2.21l0,19.41h-20v1.49Z" transform="translate(0 0)"/><path class="cls-3" d="M191,4.79V28.89h-5.68V23.46l-22,2.41a2.17,2.17,0,0,1-2.18-2.16V15.28s0-.28-.59-.66l-1.11-.79s-.61-.56.25-.56h14.79V7.75H161.57a2.56,2.56,0,0,1-2.4-2.6h18.56a2.15,2.15,0,0,1,2.2,2.18v8.49H166.7v7L185.32,21V4.79s.09-.35-1.33-.82a.73.73,0,0,1-.45-.69.71.71,0,0,1,.78-.77h4.48A2.14,2.14,0,0,1,191,4.79" transform="translate(0 0)"/><path class="cls-3" d="M152.91,4.79V28.89h-5.68V4.79s.09-.35-1.33-.82a.73.73,0,0,1-.45-.69.71.71,0,0,1,.78-.77h4.48a2.14,2.14,0,0,1,2.2,2.28" transform="translate(0 0)"/><path class="cls-3" d="M145.5,25.5h-5.9a14.26,14.26,0,0,0-4.38-8.16,41,41,0,0,1-12.06,6.88l-2.51-1.32S134,18.21,135.79,7.1h-9.91s-1.63.17-1.8-2.53H140a1.93,1.93,0,0,1,2.07,2.05s-.34,4.23-5.12,9.09c7.45,3.65,8.53,9.79,8.53,9.79" transform="translate(0 0)"/><path class="cls-3" d="M197.68,16.68,195,15.84s8.91-2.11,11.62-9.79c0,0,.49-1.06,0-1.32l-1.15-.41A.69.69,0,0,1,205,3.7S205,3,205.58,3h5.34s1.74-.07,1.46,1.33a16.34,16.34,0,0,1-2.85,5.33c9.43,2.61,11,7.29,11,7.29h-6a17.59,17.59,0,0,0-6.18-5.89,19.35,19.35,0,0,1-10.64,5.58" transform="translate(0 0)"/><path class="cls-3" d="M228.14,11h3.66v2.54h-3.66V28.89H202.5s-1,0-1-1.51V21a.93.93,0,0,0-.39-.69l-1-.74s-.88-.61,0-.61h6.79v7.44h15.58V4.79s.09-.35-1.33-.82a.73.73,0,0,1-.45-.69.71.71,0,0,1,.78-.77h4.48a2.14,2.14,0,0,1,2.2,2.28Z" transform="translate(0 0)"/><path class="cls-3" d="M103.11,33.73a.74.74,0,0,0-1,.16,17.88,17.88,0,0,1-28,0,.76.76,0,0,0-1-.16.75.75,0,0,0-.25,1,17.18,17.18,0,0,0,30.51,0,.74.74,0,0,0-.26-1" transform="translate(0 0)"/></g><g class="cls-4"><rect class="cls-3" x="67.61" y="12.62" width="7.56" height="7.57"/></g><g class="cls-2"><path class="cls-3" d="M105,14.19l8.38-8.37L107.65.07,98,9.69l-3.39,3.39h0c-2,1.46-2.28-.63-2.32-1.18V0H88.08c-3.27.06-3.8,3.37-3.86,3.88v27h8.12V15.45L98,21.16l9.61,9.61L113.39,25,105,16.61a1.79,1.79,0,0,1,0-2.42" transform="translate(0 0)"/><path class="cls-3" d="M0,4.89V6H8.19V29.11h4.74v-22a1.11,1.11,0,0,1,1-1.12h7.16V2.1h-18C.43,2.11,0,4,0,4.89M58.23,23.64a6.56,6.56,0,0,1-5,1.93c-3.26,0-5.21-1.91-5.26-5.11H58.67a2.79,2.79,0,0,0,2.91-2.93h0c-.45-5-3.93-8.15-9-8.15-5.6,0-9.08,3.77-9.08,9.84,0,8.19,5.24,9.9,9.63,9.9a10.63,10.63,0,0,0,8-3l.1-.09-2.9-2.45ZM48,16.55a4.47,4.47,0,0,1,.45-1.41,4.37,4.37,0,0,1,4.1-2.34,4.3,4.3,0,0,1,4.08,2.34,5.17,5.17,0,0,1,.56,2.43H48.93a1,1,0,0,1-.93-1m-14.37-7a8,8,0,0,0-4.26,1.17,1,1,0,0,1-.78-.08.85.85,0,0,1-.31-.53v-8H26.94A3.14,3.14,0,0,0,24.48,3a3.21,3.21,0,0,0-.69,2.26V29.11h4.49V17.3c0-2.55,1.57-4.05,4.18-4.05s4.15,1.51,4.15,4.05V29.11h4.48V16.7c0-4.38-2.86-7.11-7.46-7.11" transform="translate(0 0)"/></g></svg>