<svg id="레이어_1" data-name="레이어 1" xmlns="http://www.w3.org/2000/svg" xmlns:xlink="http://www.w3.org/1999/xlink" viewBox="0 0 387.26 51.02"><defs><style>.cls-1{fill:none;}.cls-2{clip-path:url(#clip-path);}.cls-3{fill:#8f8880;}.cls-4{clip-path:url(#clip-path-2);}</style><clipPath id="clip-path" transform="translate(0 0)"><rect class="cls-1" width="387.26" height="51.02"/></clipPath><clipPath id="clip-path-2" transform="translate(0 0)"><path class="cls-1" d="M80.74,14.65C78.64,14.7,78.42,17,78.42,17v6.39h8.78V14.65Z"/></clipPath></defs><title>Vector Smart Object1</title><g class="cls-2"><path class="cls-3" d="M268.36,34A7.78,7.78,0,0,1,260.23,26a8,8,0,0,1,8.08-8.13,8.45,8.45,0,0,1,6,2.13L272.59,22a6.13,6.13,0,0,0-4.39-1.68,5.29,5.29,0,0,0-5.08,5.55c0,3.25,2.12,5.62,5.33,5.62a6.41,6.41,0,0,0,3.79-1.19V27.41h-4V25h6.67V31.6A10,10,0,0,1,268.36,34" transform="translate(0 0)"/><polygon class="cls-3" points="284.98 33.77 282.2 33.77 282.2 27.59 275.98 18.1 279.22 18.1 283.61 25.04 288.05 18.1 291.2 18.1 284.98 27.53 284.98 33.77"/><polygon class="cls-3" points="305.02 20.56 296.15 20.56 296.15 24.64 304.01 24.64 304.01 27.1 296.15 27.1 296.15 31.31 305.13 31.31 305.13 33.77 293.4 33.77 293.4 18.1 305.02 18.1 305.02 20.56"/><path class="cls-3" d="M315.66,34a8.1,8.1,0,1,1,0-16.21,8.1,8.1,0,1,1,0,16.21m0-13.68a5.3,5.3,0,0,0-5.28,5.55,5.38,5.38,0,0,0,5.33,5.6A5.3,5.3,0,0,0,321,26a5.38,5.38,0,0,0-5.33-5.6" transform="translate(0 0)"/><polygon class="cls-3" points="337.95 18.1 340.65 18.1 340.65 33.77 338.35 33.77 329.71 22.63 329.71 33.77 327 33.77 327 18.1 329.55 18.1 337.95 28.94 337.95 18.1"/><path class="cls-3" d="M351.9,34A7.78,7.78,0,0,1,343.77,26a8,8,0,0,1,8.09-8.13,8.45,8.45,0,0,1,6,2.13L356.13,22a6.14,6.14,0,0,0-4.39-1.68,5.29,5.29,0,0,0-5.08,5.55c0,3.25,2.13,5.62,5.33,5.62a6.41,6.41,0,0,0,3.78-1.19V27.41h-4V25h6.67V31.6A10,10,0,0,1,351.9,34" transform="translate(0 0)"/><path class="cls-3" d="M365.27,34a5.91,5.91,0,0,1-5-2.53l1.82-1.86a3.9,3.9,0,0,0,3.15,1.84c1.48,0,2.49-1,2.49-3.07V18.1h2.82V28.44c0,3.72-2.17,5.55-5.26,5.55" transform="translate(0 0)"/><path class="cls-3" d="M387.26,27c0,4.68-2.64,7-6.74,7s-6.67-2.35-6.67-6.9v-9h2.76V27c0,2.91,1.5,4.48,4,4.48s3.94-1.48,3.94-4.36v-9h2.75Z" transform="translate(0 0)"/><path class="cls-3" d="M236.37,20.34v0c-.54-5.84-4.55-9.45-10.48-9.45-6.5,0-10.54,4.38-10.54,11.43,0,9.5,6.08,11.48,11.18,11.48a12.27,12.27,0,0,0,9.29-3.48l.12-.1-3.36-2.85-.09.09a7.67,7.67,0,0,1-5.87,2.24c-3.77,0-6-2.22-6.09-5.92H233a3.23,3.23,0,0,0,3.37-3.4m-14.67,0a1.1,1.1,0,0,1-1.09-1.18,5.28,5.28,0,0,1,.51-1.64,5.09,5.09,0,0,1,4.76-2.72,5,5,0,0,1,4.72,2.72,6.11,6.11,0,0,1,.65,2.82Z" transform="translate(0 0)"/><path class="cls-3" d="M243.71,2.45c-3.17,0-3.67,2.26-3.67,3.23v28.1h5.5V2.45Z" transform="translate(0 0)"/><path class="cls-3" d="M185.82,33.78c-6.69,0-10.91-5.11-10.91-11.4s4.25-11.52,11-11.52S196.86,16,196.86,22.3s-4.25,11.48-11,11.48m0-18.77c-4,0-6.11,3.43-6.11,7.29s2.28,7.37,6.2,7.37c4.07,0,6.15-3.42,6.15-7.29S189.77,15,185.82,15" transform="translate(0 0)"/><path class="cls-3" d="M207.43,14.8h5V10.14h-6.26V3.66h-1.83c-3.18,0-3.67,2.27-3.67,3.23V27.23c0,5.19,2.82,6.93,6.8,6.93a9.55,9.55,0,0,0,4.87-1.2V28.53a7.17,7.17,0,0,1-3.35.8c-1.84,0-2.91-.84-2.82-3V16.09a1.29,1.29,0,0,1,1.29-1.29" transform="translate(0 0)"/><path class="cls-3" d="M169.23,2.45c-3.17,0-3.67,2.26-3.67,3.23v9.78h-14.2v-13h-1.83c-3.16,0-3.67,2.26-3.67,3.23v28.1h5.5V21.86a1.31,1.31,0,0,1,1.3-1.3h12.9V33.78h5.5V2.45Z" transform="translate(0 0)"/><path class="cls-3" d="M117,39.13a.86.86,0,0,0-1.15.18,20.74,20.74,0,0,1-32.49,0,.87.87,0,0,0-1.45.94,19.92,19.92,0,0,0,35.38,0,.85.85,0,0,0-.3-1.12" transform="translate(0 0)"/></g><g class="cls-4"><rect class="cls-3" x="78.42" y="14.65" width="8.78" height="8.77"/></g><g class="cls-2"><path class="cls-3" d="M119.21,16.47l9.74-9.72L122.28.09,111.14,11.24l-3.93,3.93h0c-2.32,1.69-2.65-.72-2.71-1.36V0H99.58c-3.79.07-4.41,3.91-4.48,4.51V35.78h9.41V17.92L122.28,35.7,128.94,29l-9.78-9.77a2.08,2.08,0,0,1,0-2.8" transform="translate(0 0)"/><path class="cls-3" d="M0,5.68V6.95H9.5V33.78H15V8.25a1.28,1.28,0,0,1,1.19-1.3h8.3V2.44H3.67C.5,2.45.05,4.71,0,5.68M67.54,27.43a7.62,7.62,0,0,1-5.86,2.24c-3.78,0-6-2.22-6.1-5.92H68.06a3.24,3.24,0,0,0,3.38-3.4v0c-.54-5.84-4.55-9.45-10.48-9.45-6.5,0-10.54,4.38-10.54,11.43,0,9.5,6.07,11.49,11.17,11.49a12.32,12.32,0,0,0,9.29-3.48l.12-.11-3.36-2.84ZM55.67,19.2a5.44,5.44,0,0,1,.51-1.64A5.09,5.09,0,0,1,61,14.84a5,5,0,0,1,4.72,2.71,6.16,6.16,0,0,1,.65,2.82H56.76a1.09,1.09,0,0,1-1.09-1.17M39,11.12A9.33,9.33,0,0,0,34,12.48a1.17,1.17,0,0,1-.89-.09,1,1,0,0,1-.37-.63V2.44H31.25A3.63,3.63,0,0,0,28.4,3.52a3.65,3.65,0,0,0-.81,2.62V33.78h5.21V20.07c0-2.95,1.82-4.7,4.85-4.7s4.81,1.76,4.81,4.7V33.78h5.21V19.37c0-5.08-3.32-8.25-8.66-8.25" transform="translate(0 0)"/></g></svg>